<svg width="28" height="31" viewBox="0 0 28 31" fill="none" xmlns="http://www.w3.org/2000/svg">
<path d="M23.7438 17.9904C26.886 18.8794 28.7856 22.2704 26.7581 24.8302C25.8184 26.0166 24.6976 27.0628 23.4267 27.9259C20.5075 29.9083 16.9829 30.7981 13.4726 30.4388C9.96224 30.0796 6.69093 28.4943 4.23383 25.9617C1.77672 23.4291 0.291126 20.1113 0.0382495 16.5917C-0.214627 13.0721 0.781403 9.57606 2.85121 6.7182C4.92102 3.86035 7.9321 1.82368 11.355 0.96629C14.7779 0.108904 18.3935 0.485693 21.5661 2.03041C22.9474 2.70295 24.2062 3.57813 25.3059 4.61803C27.6785 6.86172 26.2832 10.4895 23.3003 11.8185L19.9249 13.3224C18.8062 13.8208 17.4905 13.1987 16.3894 12.6626C15.7179 12.3357 14.9528 12.256 14.2284 12.4374C13.504 12.6189 12.8667 13.0499 12.4287 13.6547C11.9906 14.2595 11.7798 14.9994 11.8334 15.7443C11.8869 16.4891 12.2013 17.1913 12.7213 17.7273C13.2413 18.2632 13.9336 18.5987 14.6765 18.6748C15.4194 18.7508 16.1653 18.5625 16.7831 18.1429C17.7963 17.4549 19.0096 16.6512 20.188 16.9845L23.7438 17.9904Z" fill="#35AFBF"/>
</svg>
