<svg width="34" height="28" viewBox="0 0 34 28" fill="none" xmlns="http://www.w3.org/2000/svg">
<path d="M27.3214 26.3855C27.3214 26.7543 27.6204 27.0534 27.9892 27.0534H33.3321C33.5092 27.0534 33.679 26.983 33.8043 26.8577C33.9296 26.7325 34 26.5626 34 26.3854V25.839H27.3214V26.3855Z" fill="white"/>
<path d="M33.332 14.9106H27.9892C27.6204 14.9106 27.3214 15.2097 27.3214 15.5785V16.125H33.9999V15.5785C33.9999 15.2097 33.7008 14.9106 33.332 14.9106Z" fill="white"/>
<path d="M13.9641 19.1607H20.6426H26.1069V17.3393H13.9641V19.1607Z" fill="white"/>
<path d="M27.9284 2.76775C27.9284 1.76182 27.113 0.946289 26.107 0.946289H7.89275C6.88682 0.946289 6.07129 1.76176 6.07129 2.76775V6.41059H11.2235C12.7364 6.41225 13.9625 7.63831 13.9641 9.15125V16.1249H26.107V15.5784C26.1104 14.565 26.9155 13.7363 27.9284 13.7036V2.76775Z" fill="white"/>
<path d="M20.0355 20.375H13.9641V22.8035H20.0355V20.375Z" fill="white"/>
<path d="M33.9999 17.3393H27.3214V24.625H33.9999V17.3393Z" fill="white"/>
<path d="M0 25.5271C0.000664063 26.3698 0.683652 27.0528 1.52635 27.0534H11.2237C12.0663 27.0528 12.7493 26.3698 12.75 25.5271V25.2321H0V25.5271Z" fill="white"/>
<path d="M0 24.0178H12.75V23.4106V19.7678V10.6606H0V24.0178Z" fill="white"/>
<path d="M11.2237 7.625H1.52635C0.683652 7.62566 0.000664063 8.30865 0 9.15135V9.44639H12.75V9.15135C12.7493 8.30865 12.0663 7.62566 11.2237 7.625Z" fill="white"/>
<path d="M23.0712 24.0176H13.9641V25.2319H23.6784V24.6248C23.6783 24.2895 23.4065 24.0176 23.0712 24.0176Z" fill="white"/>
</svg>
