<svg width="33" height="33" viewBox="0 0 33 33" fill="none" xmlns="http://www.w3.org/2000/svg">
<g clip-path="url(#clip0_1_181)">
<path d="M18.2069 27.5164V25.2477H-5.72205e-06V27.5255C-5.72205e-06 29.5883 1.66689 31.293 3.72994 31.293H20.0419C19.8854 31.1508 19.7346 31.026 19.5921 30.8832C18.7011 29.9895 18.2027 28.7782 18.2069 27.5164V27.5164Z" fill="white"/>
<path d="M12.891 13.7634L15.5331 15.5773L18.1854 13.7634C18.9107 13.2686 19.4869 12.1521 19.4869 11.2742V7.52591L15.5397 5.5737L11.5925 7.52091V11.2742C11.5925 12.1518 12.1654 13.2686 12.891 13.7634ZM13.4858 10.2207C13.6811 10.0274 13.9965 10.0287 14.1898 10.2243L14.9833 11.0255L16.893 9.11612C17.0874 8.92165 17.4028 8.92165 17.5972 9.1164C17.7917 9.31087 17.7914 9.62619 17.5969 9.82066L15.3336 12.0851C15.2402 12.1788 15.1138 12.2321 14.9816 12.2327H14.9805C14.8477 12.2318 14.7207 12.1782 14.6279 12.0832L13.4822 10.9258C13.2889 10.7299 13.2905 10.4146 13.4858 10.2207Z" fill="white"/>
<path d="M30.3612 1.70685H30.3453C28.8826 1.70685 27.6661 2.92896 27.6661 4.39248V8.96115H33.0001V4.38359C33.0068 2.91729 31.8275 1.72102 30.3612 1.70685V1.70685Z" fill="white"/>
<path d="M7.64317 1.70685C6.25992 1.70685 5.13422 2.81755 5.13422 4.17996L4.98725 24.2521H18.7047C18.9839 24.2632 19.2042 24.4935 19.2025 24.7733V27.5164C19.1975 29.5903 20.8694 31.2781 22.943 31.2931H22.9555C25.0216 31.2781 26.6843 29.5912 26.6702 27.525V4.39332C26.6702 3.34679 27.1411 2.41806 27.8487 1.70685L7.64317 1.70685ZM10.5969 7.21037C10.5905 7.02312 10.693 6.84893 10.86 6.76336L15.3184 4.57223C15.4553 4.50445 15.6159 4.50445 15.7529 4.57223L20.2193 6.76947C20.3863 6.85504 20.4888 7.02895 20.4827 7.21648V11.2742C20.4827 12.4819 19.7456 13.9057 18.7474 14.5861L15.8226 16.5916C15.7406 16.648 15.6434 16.6783 15.544 16.6783C15.4448 16.6783 15.3481 16.6483 15.2667 16.5916L12.3332 14.5861C11.3356 13.9054 10.5969 12.4816 10.5969 11.2742V7.21037ZM22.6163 21.9762H8.96112C8.68608 21.9762 8.46328 21.7534 8.46328 21.4784C8.46328 21.2034 8.68608 20.9806 8.96112 20.9806H22.6163C22.8913 20.9806 23.1141 21.2034 23.1141 21.4784C23.1141 21.7534 22.8913 21.9762 22.6163 21.9762ZM22.6163 19.3448H8.96112C8.68608 19.3448 8.46328 19.122 8.46328 18.8469C8.46328 18.5719 8.68608 18.3491 8.96112 18.3491H22.6163C22.8913 18.3491 23.1141 18.5719 23.1141 18.8469C23.1141 19.122 22.8913 19.3448 22.6163 19.3448Z" fill="white"/>
</g>
<defs>
<clipPath id="clip0_1_181">
<rect width="33" height="33" fill="white"/>
</clipPath>
</defs>
</svg>
