<svg width="38" height="38" viewBox="0 0 38 38" fill="none" xmlns="http://www.w3.org/2000/svg">
<g clip-path="url(#clip0_1_171)">
<path d="M17.8832 7.87482C12.6139 8.40041 8.41131 12.6029 7.88571 17.8723H12.2981V20.1063H7.88571C8.41131 25.3756 12.6139 29.5781 17.8832 30.1037V25.6914H20.1172V30.1037C25.3865 29.5781 29.589 25.3756 30.1146 20.1063H25.7023V17.8723H30.1146C29.589 12.6029 25.3865 8.40041 20.1172 7.87482V12.2872H17.8832V7.87482ZM20.1172 14.5212V18.3915L22.9708 20.294L21.7316 22.1527L17.8831 19.5871V14.5212H20.1172Z" fill="white"/>
<path d="M34.2168 7.62818L37.314 7.8171L37.45 5.58717L30.5975 5.16925L30.1722 11.4621L32.4012 11.6127L32.5672 9.15656C34.6347 12.0017 35.7549 15.422 35.7549 18.9894C35.7549 28.2282 28.2385 35.7446 18.9996 35.7446C9.76078 35.7446 2.24438 28.2282 2.24438 18.9894C2.24438 9.75051 9.76078 2.23411 18.9996 2.23411V0C8.50481 0 0.0103455 8.49305 0.0103455 18.9893C0.0103455 35.7541 20.4293 44.4147 32.427 32.4166C36.0136 28.83 37.9889 24.0614 37.9889 18.9893C37.9887 14.8551 36.662 10.8951 34.2168 7.62818Z" fill="white"/>
</g>
<defs>
<clipPath id="clip0_1_171">
<rect width="38" height="38" fill="white"/>
</clipPath>
</defs>
</svg>
