<svg width="19" height="22" viewBox="0 0 19 22" fill="none" xmlns="http://www.w3.org/2000/svg">
<path d="M2.17805 15.4349C2.84543 15.4349 3.42632 15.065 3.72727 14.5192C3.73518 14.5408 3.74322 14.5622 3.75133 14.5837C3.75373 14.5902 3.75612 14.5966 3.75851 14.6031C4.46452 16.4614 5.83823 18.0193 7.64965 18.6999C8.08774 18.0038 8.86242 17.5409 9.74572 17.5409H12.8448C13.154 17.5409 13.4417 17.4537 13.6939 17.3127C14.1175 17.0758 14.4984 16.4749 14.6951 16.1564C15.0099 15.6467 15.2538 15.1068 15.4701 14.5182C15.5916 14.7389 15.7587 14.9309 15.959 15.0814V15.8413C15.959 17.5584 14.562 18.9555 12.8448 18.9555H9.74565C9.15978 18.9555 8.68479 19.4305 8.68479 20.0164C8.68479 20.6023 9.15978 21.0772 9.74565 21.0772H12.8448C15.7319 21.0772 18.0807 18.7284 18.0807 15.8413V15.0814C18.5101 14.7587 18.788 14.2453 18.788 13.6668V10.4679V9.24128C18.788 8.65095 18.4984 8.12862 18.0539 7.80747C17.7091 3.44466 14.0488 0 9.59894 0C5.14898 0 1.48873 3.44466 1.14397 7.8074C0.699427 8.12856 0.409912 8.65095 0.409912 9.24121V13.6667C0.409912 14.646 1.20546 15.4349 2.17805 15.4349ZM9.59894 2.1218C12.8931 2.1218 15.6101 4.63922 15.9277 7.85127C15.7192 8.01528 15.5485 8.22488 15.4308 8.4654C14.4297 5.85372 12.1951 4.03539 9.59887 4.03539C6.94663 4.03539 4.74785 5.91621 3.77088 8.45497C3.76955 8.45842 3.76829 8.46195 3.76696 8.46547C3.64929 8.22495 3.4785 8.01534 3.27003 7.85134C3.5878 4.63922 6.30478 2.1218 9.59894 2.1218Z" fill="white"/>
</svg>
